<?xml version="1.0" encoding="utf-8"?>
<!-- Generator: Adobe Illustrator 24.0.1, SVG Export Plug-In . SVG Version: 6.00 Build 0)  -->
<svg version="1.1" xmlns="http://www.w3.org/2000/svg" xmlns:xlink="http://www.w3.org/1999/xlink" x="0px" y="0px"
	 viewBox="0 0 800 800" style="enable-background:new 0 0 800 800;" xml:space="preserve">
	 
<style type="text/css">
@font-face {
    font-family: 'ActionMan';
    src: url('fonts/Action_Man.ttf') format('truetype');
    font-weight: normal;
    font-style: normal;

}
	.st0{fill:none;}
	.st1{fill:#4C534D;}
	.st2{font-family:'ActionMan';}
	.st3{font-size:16.0502px;}
	.st4{fill:#57BF00;}
	.st5{font-size:22.3927px;}
	.st6{fill:#FF5FE9;}
	.st7{fill:#DF7800;}
	.st8{font-size:26.3699px;}
	.st9{font-size:26.3698px;}
	.st10{font-size:25.083px;}
	.st11{fill:#222222;}
	.st12{fill:#009F7F;}
	.st13{font-size:37.4137px;}
	.st14{font-size:37.1895px;}
	.st15{fill:#3F64FF;}
	.st16{font-size:46.9061px;}
	.st17{font-size:36.9762px;}
	.st18{fill:#BF0036;}
	.st19{font-size:60.6489px;}
</style>
<g id="Background">
</g>
<g id="Object">
	<rect x="630.91" y="383.94" class="st0" width="73.8" height="22.83"/>
	<text transform="matrix(1 0 0 1 662.2344 394.4849)" class="st1 st2 st3">costs</text>
	<path class="st4" d="M492.23,465.42c0.23-2.52-3.66-3.18-3.89-0.64c-1.29,14.31-16.93,20.96-28.97,24.25
		c-17.4,4.75-36.43,4.87-54.17,2.07c-8.24-1.3-16.41-3.39-24.03-6.82c-5.86-2.64-11.64-6.28-15.26-11.73
		c-4.26-6.42-3.56-14.76,2.13-20.05c7.13-6.63,17.89-9.11,27.19-10.78c12.89-2.32,26.1-2.76,39.12-1.39
		c18.04,1.9,35.31,7.75,51.89,14.9c2.33,1.01,3.99-2.57,1.65-3.58c-15.67-6.76-31.89-12.28-48.84-14.71
		c-13.18-1.89-26.62-1.72-39.79,0.14c-15.55,2.19-43.8,8.66-39.71,30.04c2.63,13.77,17.76,20.72,29.79,24.38
		c17.26,5.26,36,6.35,53.88,4.45C460.89,494.07,490.25,487.44,492.23,465.42z"/>
	
		<rect x="412.41" y="377.37" transform="matrix(0.1633 -0.9866 0.9866 0.1633 -109.3136 816.4691)" class="st0" width="28.55" height="190.61"/>
	<text transform="matrix(0.9866 0.1632 -0.1632 0.9866 373.4998 464.2475)" class="st4 st2 st5">COHERENCY</text>
	
		<rect x="120.06" y="187.4" transform="matrix(0.991 -0.134 0.134 0.991 -31.0443 24.6213)" class="st0" width="94.71" height="111.13"/>
	<text transform="matrix(0.991 -0.134 0.134 0.991 135.6552 201.821)"><tspan x="0" y="0" class="st1 st2 st3">TRANSMIT</tspan><tspan x="19.82" y="16.05" class="st1 st2 st3">TARGET</tspan><tspan x="24.61" y="32.1" class="st1 st2 st3">PEOPLE</tspan></text>
	<path class="st6" d="M59.32,416.68c-0.8-2.54,3.06-4.1,3.86-1.54c4.55,14.45,22.17,17.77,35.31,18.45
		c19,0.98,38.63-3.2,56.27-10.08c8.19-3.2,16.14-7.19,23.22-12.45c5.44-4.04,10.58-9.1,13.08-15.52c2.94-7.58,0.34-16.01-6.72-20.18
		c-8.84-5.22-20.49-5.35-30.44-4.97c-13.8,0.52-27.51,3.04-40.62,7.39c-18.16,6.03-34.63,15.94-50.1,27.05
		c-2.18,1.56-4.69-1.75-2.51-3.31c14.62-10.5,30.08-19.84,47-26.16c13.15-4.91,27.04-7.77,41.02-8.83
		c16.51-1.25,47.07-0.96,47.68,22c0.39,14.78-13.63,25.35-25.19,31.84c-16.59,9.31-35.66,14.66-54.51,16.73
		C98.07,439.13,66.32,438.93,59.32,416.68z"/>
	<path class="st6" d="M379.42,354.05c-0.26-2.65-4.42-2.58-4.16,0.09c1.46,15.08-13.46,25.02-25.29,30.78
		c-17.11,8.33-36.81,12.16-55.73,12.71c-8.79,0.26-17.67-0.31-26.23-2.38c-6.59-1.59-13.29-4.24-18.1-9.17
		c-5.67-5.82-6.57-14.6-1.7-21.2c6.1-8.26,16.77-12.93,26.07-16.47c12.91-4.92,26.51-7.95,40.27-9.07
		c19.07-1.55,38.11,1.14,56.69,5.31c2.62,0.59,3.63-3.44,1.02-4.03c-17.56-3.95-35.44-6.51-53.48-5.71
		c-14.03,0.62-27.92,3.41-41.21,7.91c-15.68,5.3-43.7,17.52-35.29,38.88c5.42,13.76,22.45,18.01,35.63,19.46
		c18.91,2.09,38.55-0.44,56.71-5.91C352.53,389.86,381.66,377.26,379.42,354.05z"/>
	<path class="st7" d="M655.66,490.3c0.63-2.45-3.11-3.74-3.75-1.26c-3.58,13.96-20.14,18.02-32.59,19.34
		c-18,1.9-36.86-1.05-53.96-6.69c-7.94-2.62-15.7-6-22.69-10.63c-5.37-3.56-10.51-8.1-13.22-14.07c-3.19-7.05-1.15-15.19,5.35-19.51
		c8.13-5.41,19.18-6.13,28.66-6.28c13.13-0.21,26.29,1.48,38.95,4.93c17.56,4.79,33.71,13.36,48.97,23.12
		c2.15,1.37,4.36-1.9,2.22-3.28c-14.43-9.23-29.59-17.3-45.98-22.44c-12.74-3.99-26.08-5.99-39.42-6.28
		c-15.75-0.34-44.75,1.51-44.16,23.34c0.39,14.06,14.24,23.38,25.56,28.95c16.24,7.99,34.62,12.1,52.63,13.09
		C620.01,513.61,650.15,511.78,655.66,490.3z"/>
	
		<rect x="12.11" y="393.59" transform="matrix(0.991 -0.134 0.134 0.991 -53.8662 20.3598)" class="st0" width="224.46" height="33.62"/>
	<text transform="matrix(0.991 -0.134 0.134 0.991 81.8265 416.6567)" class="st6 st2 st8">DESIGN</text>
	
		<rect x="194.85" y="355.32" transform="matrix(0.9998 -0.0221 0.0221 0.9998 -8.1647 6.8908)" class="st0" width="224.46" height="33.62"/>
	<text transform="matrix(0.9998 -0.0221 0.0221 0.9998 278.7125 373.2535)" class="st6 st2 st9">LOGO</text>
	
		<rect x="570.97" y="380.32" transform="matrix(0.3197 -0.9475 0.9475 0.3197 -62.2207 887.4877)" class="st0" width="31.98" height="213.51"/>
	<text transform="matrix(0.9475 0.3197 -0.3197 0.9475 555.3209 476.9096)" class="st7 st2 st10">SALES</text>
	<path class="st11" d="M135.87,357.21c-0.6,1.01-1.59,1.65-2.48,2.41c-0.17-0.26-0.35-0.52-0.54-0.77c0.05-0.07,0.09-0.14,0.14-0.22
		c2.31-4.85,3.97-9.97,6.24-14.82c0.62-1.32-1.41-2.3-2.03-0.98c-2.17,4.62-3.78,9.48-5.92,14.12c-0.59-0.69-1.17-1.46-1.25-2.26
		c-0.14-1.44-2.38-1.28-2.25,0.18c0.27,2.87,3.29,4.49,4.3,7.03c0.38,0.96,1.58,0.97,2.08,0.12c0.92-1.55,2.79-2.23,3.73-3.83
		C138.65,356.94,136.61,355.97,135.87,357.21z"/>
	<path class="st11" d="M279.65,327.34c0.84,0.81,1.97,1.17,3.03,1.67c0.1-0.3,0.2-0.59,0.32-0.88c-0.07-0.05-0.13-0.11-0.19-0.18
		c-3.51-4.06-6.47-8.56-9.96-12.63c-0.94-1.1,0.75-2.59,1.69-1.49c3.32,3.88,6.17,8.14,9.46,12.04c0.39-0.82,0.74-1.72,0.6-2.51
		c-0.25-1.43,1.96-1.86,2.21-0.43c0.5,2.84-1.98,5.2-2.28,7.92c-0.11,1.03-1.26,1.35-1.97,0.67c-1.3-1.25-3.28-1.41-4.62-2.7
		C276.9,327.82,278.61,326.34,279.65,327.34z"/>
	<path class="st11" d="M417.23,524.84c-0.28,1.51,0.15,3,0.36,4.51c0.39-0.11,0.79-0.21,1.19-0.29c0.01-0.11,0.03-0.22,0.06-0.34
		c1.9-6.76,4.67-13.23,6.61-19.98c0.52-1.83,3.37-1.05,2.84,0.78c-1.84,6.42-4.44,12.6-6.32,19.01c1.18-0.17,2.41-0.43,3.18-1.15
		c1.38-1.31,3.45,0.8,2.06,2.11c-2.74,2.59-7.11,1.59-10.29,3.23c-1.2,0.62-2.39-0.41-2.15-1.67c0.43-2.32-0.82-4.6-0.38-6.98
		C414.73,522.19,417.57,522.98,417.23,524.84z"/>
	<path class="st11" d="M411.83,208.77c0.6,1.65,1.89,2.87,2.98,4.24c0.33-0.34,0.66-0.66,1.01-0.98c-0.06-0.11-0.1-0.23-0.14-0.37
		c-2.06-7.79-3.08-15.8-5.09-23.59c-0.55-2.11,2.72-3,3.26-0.89c1.91,7.42,2.95,15.04,4.81,22.47c1.07-0.85,2.13-1.82,2.47-2.99
		c0.6-2.09,3.87-1.22,3.27,0.88c-1.2,4.15-6.1,5.71-8.3,9.18c-0.83,1.31-2.6,0.99-3.1-0.4c-0.93-2.54-3.49-4.07-4.44-6.68
		C407.82,207.61,411.09,206.74,411.83,208.77z"/>
	<path class="st12" d="M747.15,334.22c0.9-3.67-4.71-5.52-5.61-1.82c-5.11,20.88-29.74,27.21-48.29,29.39
		c-26.81,3.14-54.99-0.96-80.6-9.08c-11.89-3.77-23.52-8.69-34.02-15.48c-8.08-5.22-15.82-11.9-19.95-20.76
		c-4.87-10.45-1.96-22.64,7.65-29.19c12.04-8.21,28.51-9.46,42.64-9.85c19.59-0.54,39.23,1.76,58.18,6.71
		c26.27,6.85,50.51,19.37,73.43,33.67c3.23,2.01,6.48-2.91,3.25-4.93c-21.67-13.52-44.42-25.31-68.95-32.69
		c-19.07-5.74-39-8.51-58.89-8.71c-23.49-0.24-66.73,3-65.47,35.55c0.81,20.96,21.64,34.63,38.61,42.75
		c24.35,11.65,51.84,17.46,78.72,18.64C694.36,369.59,739.29,366.35,747.15,334.22z"/>
	
		<rect x="620.78" y="171.33" transform="matrix(0.3091 -0.951 0.951 0.3091 131.0037 841.4491)" class="st0" width="47.7" height="318.47"/>
	<text transform="matrix(0.951 0.3091 -0.3091 0.951 582.7578 311.1621)" class="st12 st2 st13">MARKET</text>
	<g>
		<path class="st12" d="M673.13,347.08c-24.41-3.01-48.01-10.39-72.39-13.61c-2.26-0.3-2.41,3.24-0.16,3.53
			c24.38,3.23,47.98,10.6,72.39,13.62C675.24,350.89,675.38,347.36,673.13,347.08z"/>
	</g>
	
		<rect x="415.61" y="144.6" transform="matrix(0.0125 -0.9999 0.9999 0.0125 151.0047 718.5894)" class="st0" width="47.42" height="276.49"/>
	<text transform="matrix(0.9999 0.0125 -0.0125 0.9999 362.0125 282.5603)" class="st12 st2 st14">ACTIVITY</text>
	<path class="st12" d="M338.21,273.08c-0.31-3.74,5.48-4.69,5.79-0.92c1.77,21.29,24.97,31.34,42.84,36.35
		c25.84,7.25,54.14,7.61,80.54,3.61c12.26-1.85,24.44-4.88,35.8-9.91c8.74-3.87,17.38-9.23,22.81-17.29
		c6.41-9.51,5.44-21.92-2.97-29.85c-10.54-9.93-26.52-13.72-40.33-16.29c-19.15-3.57-38.79-4.36-58.17-2.45
		c-26.85,2.65-52.6,11.17-77.32,21.64c-3.48,1.48-5.91-3.87-2.43-5.34c23.38-9.9,47.54-17.95,72.78-21.39
		c19.62-2.67,39.61-2.29,59.17,0.6c23.1,3.41,65.05,13.31,58.76,45.07c-4.05,20.46-26.62,30.64-44.54,35.97
		c-25.71,7.66-53.61,9.09-80.18,6.08C384.54,316,340.94,305.84,338.21,273.08z"/>
	<g>
		<path class="st12" d="M469.32,292.1c-24.05,4.35-48.64,4.32-72.73,8.46c-2.23,0.38-1.33,3.78,0.89,3.4
			c24.09-4.14,48.67-4.11,72.73-8.46C472.44,295.09,471.54,291.69,469.32,292.1z"/>
	</g>
	<g>
		<path class="st4" d="M446.05,478.89c-14.71,0.4-29.34-1.85-44.06-1.57c-1.36,0.03-1.13,2.13,0.22,2.1
			c14.72-0.27,29.34,1.98,44.06,1.57C447.64,480.96,447.41,478.85,446.05,478.89z"/>
	</g>
	
		<rect x="396.47" y="-69.73" transform="matrix(0.0907 -0.9959 0.9959 0.0907 258.3426 542.738)" class="st0" width="59.8" height="399.27"/>
	<text transform="matrix(0.9959 0.0907 -0.0907 0.9959 336.3672 122.6568)" class="st15 st2 st16">COMPANY</text>
	<path class="st15" d="M552.78,105.18c0.08-4.74-7.29-5.44-7.37-0.67c-0.44,26.94-28.8,41.53-50.87,49.34
		c-31.91,11.29-67.49,14.11-101.06,11.3c-15.59-1.3-31.17-4.09-45.89-9.47c-11.32-4.13-22.65-10.15-30.16-19.84
		c-8.86-11.42-8.69-27.12,1.24-37.81c12.44-13.38,32.23-19.49,49.39-23.89c23.8-6.1,48.45-8.74,73-7.96
		c34.02,1.08,67.13,9.65,99.12,20.76c4.51,1.57,7.11-5.36,2.61-6.92c-30.25-10.5-61.34-18.6-93.38-20.81
		c-24.91-1.72-50.04,0.44-74.42,5.72c-28.78,6.23-80.75,22.2-70.17,61.65c6.81,25.41,36.07,36.33,59.07,41.54
		c33,7.48,68.23,6.95,101.41,0.93C498.07,163.08,552.1,146.65,552.78,105.18z"/>
	<g>
		<path class="st15" d="M467.34,144.9c-30.67,3.1-61.58,0.63-92.28,3.47c-2.84,0.26-2.04,4.62,0.78,4.36
			c30.7-2.83,61.6-0.37,92.28-3.47C470.96,148.98,470.16,144.62,467.34,144.9z"/>
	</g>
	<path class="st12" d="M300.02,255.86c-0.77-3.65-6.56-2.9-5.78,0.78c4.4,20.78-14.82,36.98-30.4,46.87
		c-22.53,14.29-49.38,22.72-75.66,26.47c-12.21,1.74-24.67,2.34-36.93,0.8c-9.43-1.19-19.19-3.82-26.66-9.94
		c-8.82-7.22-11.45-19.32-5.7-29.27c7.2-12.47,21.33-20.65,33.74-27.05c17.21-8.88,35.69-15.25,54.69-18.97
		c26.33-5.16,53.28-4.4,79.82-1.5c3.74,0.41,4.52-5.37,0.78-5.78c-25.09-2.74-50.41-3.5-75.42,0.45
		c-19.45,3.06-38.37,9.14-56.18,17.49c-21.02,9.86-58.14,31.27-43.06,59.72c9.71,18.32,34.11,21.56,52.7,21.52
		c26.68-0.06,53.65-6.67,78.09-17.14C268.18,309.98,306.8,287.84,300.02,255.86z"/>
	
		<rect x="49.79" y="272.97" transform="matrix(0.991 -0.134 0.134 0.991 -37.8641 30.4298)" class="st0" width="314.74" height="47.14"/>
	<text transform="matrix(0.991 -0.134 0.134 0.991 125.6357 308.2811)" class="st12 st2 st17">BRANDING</text>
	<path class="st12" d="M233.32,299.89c-23.03,7.78-47.21,11.33-70.3,18.91c-2.14,0.7-0.76,3.91,1.37,3.21
		c23.09-7.58,47.27-11.12,70.3-18.9C236.83,302.39,235.45,299.18,233.32,299.89z"/>
	<g>
		<path class="st7" d="M606.11,497.89c-16.34-2.2-32.11-7.33-48.42-9.67c-1.51-0.22-1.64,2.15-0.13,2.37
			c16.32,2.34,32.08,7.47,48.43,9.67C607.49,500.46,607.62,498.09,606.11,497.89z"/>
	</g>
	<g>
		<path class="st6" d="M334.15,379.27c-16.94,3.67-34.36,4.26-51.33,7.78c-1.57,0.33-0.85,2.71,0.72,2.39
			c16.97-3.53,34.39-4.11,51.33-7.78C336.44,381.32,335.71,378.93,334.15,379.27z"/>
	</g>
	<g>
		<path class="st6" d="M151.32,411.33c-16.42,5.55-33.66,8.08-50.13,13.48c-1.52,0.5-0.54,2.79,0.98,2.29
			c16.47-5.4,33.71-7.93,50.13-13.48C153.82,413.11,152.84,410.82,151.32,411.33z"/>
	</g>
	<g>
		<path class="st18" d="M555,597.88c-0.45-6.11-10.02-6.15-9.56,0c2.59,34.75-32.21,56.85-59.72,69.49
			c-39.77,18.27-85.25,26.08-128.8,26.39c-20.22,0.15-40.61-1.61-60.2-6.81c-15.07-4-30.35-10.42-41.16-22.02
			c-12.74-13.67-14.37-33.91-2.83-48.83c14.44-18.69,39.21-28.88,60.79-36.55c29.93-10.65,61.37-16.94,93.06-18.81
			c43.93-2.6,87.57,4.56,130.07,15.11c5.99,1.49,8.53-7.74,2.54-9.22c-40.18-9.98-81.16-16.76-122.68-15.85
			c-32.28,0.71-64.38,6.43-95.16,16.09c-36.34,11.4-101.37,38.05-83.12,87.61c11.75,31.91,50.71,42.54,80.93,46.55
			c43.37,5.76,88.66,0.95,130.7-10.7C491.34,678.85,558.98,651.36,555,597.88z"/>
		<rect x="137" y="609.74" class="st0" width="516.25" height="77.33"/>
		<text transform="matrix(1 0 0 1 276.502 649.585)" class="st18 st2 st19">SUCCESS!</text>
		<path class="st18" d="M247.69,575.62c-5.74-5.04-10.13-11.06-14.18-17.49c-2.37-3.77-8.37-0.3-5.99,3.5
			c4.35,6.91,9.11,13.49,15.27,18.89C246.13,583.45,251.05,578.57,247.69,575.62z"/>
		<path class="st18" d="M236.59,587.2c-6.59-4.15-12.99-8.58-19.92-12.13c-3.97-2.03-7.48,3.95-3.5,5.99
			c6.94,3.55,13.34,7.98,19.93,12.13C236.89,595.58,240.36,589.58,236.59,587.2z"/>
		<path class="st18" d="M580.51,551.68c-6.26,3.58-12.43,7.23-18.03,11.81c-3.47,2.83,1.47,7.7,4.9,4.9
			c5.12-4.18,10.9-7.45,16.63-10.72C587.88,555.45,584.39,549.46,580.51,551.68z"/>
		<path class="st18" d="M586.53,566.93c-5.97,1.97-11.96,3.87-17.29,7.28c-3.75,2.4-0.28,8.4,3.5,5.98
			c4.85-3.1,10.21-4.79,15.63-6.58C592.6,572.22,590.79,565.52,586.53,566.93z"/>
		<path class="st18" d="M542.25,695.17c-4.75-4.84-8.75-10.31-11.24-16.67c-1.61-4.11-8.32-2.32-6.68,1.84
			c2.94,7.51,7.38,13.98,13.02,19.72C540.49,703.27,545.39,698.36,542.25,695.17z"/>
		<path class="st18" d="M527.2,703.67c-1.91-3.82-3.88-7.59-6.06-11.26c-2.28-3.84-8.28-0.35-5.99,3.5
			c2.19,3.67,4.16,7.44,6.07,11.26C523.22,711.17,529.2,707.66,527.2,703.67z"/>
		<path class="st18" d="M241.03,694.1c-1.67,5.63-4.23,10.73-7.45,15.63c-2.46,3.75,3.54,7.22,5.99,3.5
			c3.53-5.38,6.31-11.11,8.15-17.29C248.99,691.65,242.3,689.83,241.03,694.1z"/>
		<path class="st18" d="M230.49,677.31c-5.21,3.42-10.74,6.19-16.46,8.66c-4.09,1.77-0.56,7.74,3.5,5.98
			c5.72-2.47,11.25-5.24,16.46-8.66C237.71,680.85,234.24,674.85,230.49,677.31z"/>
	</g>
	<path class="st11" d="M183.51,523.71c2.22,0.22,4.48,0.47,6.74,0.64c-19.93-17.8-41.06-40.23-42.57-67.98
		c-0.1-1.83,2.73-2.27,2.83-0.43c1.52,28.05,23.73,50.53,43.76,68.16c0.51-2.48,0.56-5.03,0.4-7.56c-0.1-1.52,2.16-2.42,2.73-0.78
		c1.04,2.99,1.71,7.16,0.94,10.29c-0.14,0.58-0.52,1.22-1.21,1.26c-0.27,0.01-0.53,0.02-0.8,0.03c-0.35,0.76-1.49,1.07-2.14,0.5
		c-0.18-0.16-0.36-0.32-0.54-0.47c-3.49-0.07-7-0.46-10.45-0.8C181.36,526.38,181.67,523.53,183.51,523.71z"/>
	<path class="st11" d="M230.29,208.5c0.42,2.19,0.82,4.43,1.31,6.64c11.38-24.17,26.87-50.82,53.05-60.16
		c1.73-0.62,2.96,1.97,1.22,2.59c-26.46,9.45-41.68,37.13-52.88,61.35c2.52-0.21,4.98-0.9,7.36-1.77c1.43-0.52,2.94,1.38,1.53,2.39
		c-2.57,1.85-6.37,3.67-9.59,3.83c-0.6,0.03-1.32-0.15-1.55-0.8c-0.09-0.25-0.17-0.51-0.25-0.76c-0.83-0.12-1.45-1.12-1.09-1.9
		c0.1-0.22,0.2-0.44,0.3-0.65c-0.93-3.36-1.55-6.84-2.21-10.25C227.13,207.19,229.94,206.69,230.29,208.5z"/>
	<path class="st11" d="M601.12,236.47c-1.19,2.15-2.37,4.35-3.64,6.5c-4.51-29.45-12.72-62.98-38.43-82.18
		c-1.69-1.27-3.91,1-2.2,2.28c25.99,19.42,33.56,53.93,37.85,83.37c-2.7-1.13-5.18-2.73-7.52-4.5c-1.4-1.06-3.69,0.39-2.48,1.96
		c2.22,2.86,5.8,6.14,9.29,7.47c0.65,0.25,1.5,0.32,1.97-0.28c0.18-0.23,0.35-0.47,0.53-0.7c0.95,0.17,1.97-0.66,1.83-1.61
		c-0.04-0.26-0.08-0.53-0.11-0.79c2.14-3.2,3.98-6.62,5.83-9.96C605.04,236.24,602.11,234.7,601.12,236.47z"/>
	<path class="st11" d="M327.46,519.97c-1.78,1.35-3.57,2.75-5.4,4.08c7.63-25.6,13.86-55.79,0.59-80.21
		c-0.88-1.61-3.52-0.5-2.64,1.12c13.42,24.68,6.3,55.46-1.5,80.98c-1.74-1.84-3.11-3.99-4.31-6.23c-0.72-1.34-3.11-0.93-2.73,0.76
		c0.68,3.09,2.3,6.99,4.6,9.25c0.43,0.42,1.08,0.77,1.69,0.44c0.23-0.13,0.46-0.26,0.7-0.4c0.7,0.46,1.83,0.13,2.08-0.69
		c0.07-0.23,0.14-0.46,0.21-0.69c2.94-1.89,5.72-4.07,8.48-6.16C330.69,521.11,328.93,518.85,327.46,519.97z"/>
	<path class="st11" d="M466.77,407.37c-1.78,1.35-3.57,2.75-5.4,4.08c7.63-25.6,13.86-55.79,0.59-80.21
		c-0.88-1.61-3.52-0.5-2.64,1.12c13.42,24.68,6.3,55.46-1.5,80.98c-1.74-1.84-3.11-3.99-4.31-6.23c-0.72-1.34-3.11-0.93-2.73,0.76
		c0.68,3.09,2.3,6.99,4.6,9.25c0.43,0.42,1.08,0.77,1.69,0.44c0.23-0.13,0.46-0.26,0.7-0.4c0.7,0.46,1.83,0.13,2.08-0.69
		c0.07-0.23,0.14-0.46,0.21-0.69c2.94-1.89,5.72-4.07,8.48-6.16C470,408.52,468.24,406.26,466.77,407.37z"/>
	<path class="st11" d="M611.38,444.83c0.04-0.01,0.07-0.02,0.11-0.03c0.97-0.31,1.2-1.92,0.3-2.46c-1.62-0.96-4.19-0.81-6-1.03
		c-0.96-0.12-1.93-0.22-2.91-0.33c24.33-11.79,52.49-38.03,41.71-67.43c-0.64-1.73-3.27-0.6-2.63,1.12
		c10.1,27.56-16.98,52.23-39.71,63.43c0.4-2.99,0.32-6.05,0.78-9.04c0.22-1.41-1.71-2.21-2.56-1.06c-2.97,4.05-4.84,8.06-5.83,12.98
		c-0.12,0.58,0.29,1.34,0.87,1.51c2.56,0.76,5.25,1.06,7.89,1.39c1.57,0.2,3.14,0.38,4.71,0.58c0.42,0.05,2.42,0.52,2.06,0.22
		C610.5,444.9,610.92,444.98,611.38,444.83z M598.9,440.41c-0.38-0.07-0.76-0.15-1.14-0.24c0.47-1.94,1.11-3.71,1.93-5.4
		C599.56,436.67,599.39,438.57,598.9,440.41z"/>
	<path class="st11" d="M484.22,545.77c3.75-0.3,6.29-2.42,9.68-3.77c1.27-0.5,1.3-2.77-0.33-2.6c-0.11,0.01-0.22,0.04-0.33,0.05
		c0,0,0,0,0-0.01c-0.01,0-0.02,0.01-0.03,0.01c-1.81,0.25-3.49,0.98-5.24,1.44c5.97-19.38,18.26-35.5,38.68-40.9
		c1.65-0.44,0.98-2.99-0.67-2.56c-21.85,5.78-34.97,23.34-41.02,44.3c-0.44-2.32-0.68-4.68-1.32-6.97
		c-0.46-1.64-3.01-0.97-2.56,0.67c0.85,3.07,1.01,6.27,1.86,9.34C483.09,545.32,483.63,545.82,484.22,545.77z"/>
	<rect x="289" y="739.94" class="st0" width="225" height="31"/>
</g>
</svg>
